HIERARCHY
ROOT root
{
	OFFSET 0.000000 0.000000 0.000000
	CHANNELS 6 Xposition Yposition Zposition Zrotation Yrotation Xrotation
	JOINT lhip
	{
		OFFSET 0.058581 -0.082280 -0.017664
		CHANNELS 3 Zrotation Yrotation Xrotation
		JOINT lknee
		{
			OFFSET 0.043451 -0.386469 0.008037
			CHANNELS 3 Zrotation Yrotation Xrotation
			JOINT lankle
			{
				OFFSET -0.014790 -0.426874 -0.037428
				CHANNELS 3 Zrotation Yrotation Xrotation
				JOINT ltoe
				{
					OFFSET 0.041054 -0.060286 0.122042
					CHANNELS 3 Zrotation Yrotation Xrotation
					End Site
					{
						OFFSET 0.000000 0.000000 0.000000
					}
				}
			}
		}
	}
	JOINT rhip
	{
		OFFSET -0.060310 -0.090513 -0.013543
		CHANNELS 3 Zrotation Yrotation Xrotation
		JOINT rknee
		{
			OFFSET -0.043257 -0.383688 -0.004843
			CHANNELS 3 Zrotation Yrotation Xrotation
			JOINT rankle
			{
				OFFSET 0.019056 -0.420046 -0.034562
				CHANNELS 3 Zrotation Yrotation Xrotation
				JOINT rtoe
				{
					OFFSET -0.034840 -0.062106 0.130323
					CHANNELS 3 Zrotation Yrotation Xrotation
					End Site
					{
						OFFSET 0.000000 0.000000 0.000000
					}
				}
			}
		}
	}
	JOINT lowerback
	{
		OFFSET 0.004439 0.124404 -0.038385
		CHANNELS 3 Zrotation Yrotation Xrotation
		JOINT upperback
		{
			OFFSET 0.004488 0.137956 0.026820
			CHANNELS 3 Zrotation Yrotation Xrotation
			JOINT chest
			{
				OFFSET -0.002265 0.056032 0.002855
				CHANNELS 3 Zrotation Yrotation Xrotation
				JOINT lowerneck
				{
					OFFSET -0.013390 0.211636 -0.033468
					CHANNELS 3 Zrotation Yrotation Xrotation
					JOINT upperneck
					{
						OFFSET 0.010113 0.088937 0.050410
						CHANNELS 3 Zrotation Yrotation Xrotation
						End Site
						{
							OFFSET 0.000000 0.000000 0.000000
						}
					}
				}
				JOINT lclavicle
				{
					OFFSET 0.071702 0.114000 -0.018898
					CHANNELS 3 Zrotation Yrotation Xrotation
					JOINT lshoulder
					{
						OFFSET 0.122921 0.045205 -0.019046
						CHANNELS 3 Zrotation Yrotation Xrotation
						JOINT lelbow
						{
							OFFSET 0.255332 -0.015649 -0.022946
							CHANNELS 3 Zrotation Yrotation Xrotation
							JOINT lwrist
							{
								OFFSET 0.265709 0.012698 -0.007375
								CHANNELS 3 Zrotation Yrotation Xrotation
								End Site
								{
									OFFSET 0.000000 0.000000 0.000000
								}
							}
						}
					}
				}
				JOINT rclavicle
				{
					OFFSET -0.082954 0.112472 -0.023707
					CHANNELS 3 Zrotation Yrotation Xrotation
					JOINT rshoulder
					{
						OFFSET -0.113228 0.046853 -0.008472
						CHANNELS 3 Zrotation Yrotation Xrotation
						JOINT relbow
						{
							OFFSET -0.260127 -0.014369 -0.031269
							CHANNELS 3 Zrotation Yrotation Xrotation
							JOINT rwrist
							{
								OFFSET -0.269108 0.006794 -0.006027
								CHANNELS 3 Zrotation Yrotation Xrotation
								End Site
								{
									OFFSET 0.000000 0.000000 0.000000
								}
							}
						}
					}
				}
			}
		}
	}
}
MOTION
Frames: 13
Frame Time: 0.033333
-0.291271 -1.899263 1.027411 -175.371626 1.797004 83.975024 2.042109 3.487316 8.324319 -3.758431 -3.305368 2.621070 5.061135 11.596088 -16.282533 0.000000 -0.000000 0.000000 0.735239 -3.480385 0.828111 0.756586 -3.604871 14.577403 -0.335130 -10.356232 -18.778288 0.000000 -0.000000 0.000000 1.149768 -0.886150 3.908432 0.906397 -2.463162 4.093676 -0.453451 -1.585525 2.981087 3.689824 0.620738 0.693919 1.441977 -2.112596 10.857053 -29.159005 0.144412 5.936574 -59.283860 -7.534077 7.662004 10.505160 -24.457739 2.153119 -2.262896 -2.512957 -8.365232 26.002971 3.552196 5.912452 57.322765 4.214088 12.949513 -11.683080 25.494846 -2.468493 6.759714 2.131337 -9.397103 
-0.291548 -1.899277 1.027254 -175.461841 1.828910 83.949376 2.089520 3.499779 8.420673 -3.807794 -3.317006 2.530359 5.038964 11.596126 -16.222887 0.000000 -0.000000 0.000000 0.713976 -3.470934 0.916069 0.832611 -3.531725 14.469980 -0.235330 -10.364363 -18.779481 0.000000 -0.000000 0.000000 1.166672 -0.935692 3.813000 0.828374 -2.386225 4.006289 -0.427531 -1.577663 3.305919 3.735152 0.707098 0.340922 1.311215 -2.156708 11.217167 -28.992461 0.113696 5.896039 -59.494162 -7.632460 7.702556 10.608476 -24.352234 2.159791 -2.206805 -2.604182 -8.518281 25.896081 3.588123 5.921676 57.445530 4.310393 13.016713 -11.890276 25.562093 -2.601947 6.595787 2.194548 -9.457193 
-0.291863 -1.899128 1.027243 -175.544501 1.848490 83.939977 2.112800 3.529914 8.489400 -3.839335 -3.350310 2.480661 5.017593 11.600808 -16.171262 0.000000 -0.000000 0.000000 0.690769 -3.492405 0.973023 0.866606 -3.464423 14.383276 -0.211861 -10.315263 -18.739438 0.000000 -0.000000 0.000000 1.167656 -0.966646 3.764144 0.813683 -2.374771 3.998007 -0.445501 -1.574100 3.333372 3.712392 0.742967 0.337127 1.265117 -2.117777 11.294370 -28.951479 0.181182 5.872945 -59.540790 -7.614562 7.716245 10.639968 -24.271464 2.165304 -2.061712 -2.880685 -8.762738 25.887621 3.527172 5.946111 57.415168 4.330039 13.092024 -11.951487 25.711488 -2.593427 6.299564 2.330993 -9.465444 
-0.292215 -1.899276 1.027235 -175.660359 1.875991 83.923175 2.124554 3.532595 8.522947 -3.868145 -3.379427 2.494347 5.046497 11.651065 -16.119068 0.000000 -0.000000 0.000000 0.684619 -3.458300 0.978381 0.893080 -3.414444 14.354842 -0.214528 -10.287879 -18.716405 0.000000 -0.000000 0.000000 1.132162 -0.962085 3.703782 0.820184 -2.362710 4.055230 -0.440551 -1.572234 3.353717 3.680981 0.773175 0.364991 1.267548 -2.067909 11.272649 -28.937119 0.148240 5.858796 -59.554148 -7.656929 7.724741 10.672701 -24.318790 2.134583 -2.006579 -2.885963 -8.833750 25.846403 3.526997 5.951813 57.382304 4.344414 13.115639 -11.956791 25.853443 -2.566211 6.292956 2.330408 -9.505713 
-0.292373 -1.899458 1.027233 -175.749120 1.878229 83.905784 2.117107 3.551403 8.541539 -3.875203 -3.371224 2.509350 5.065687 11.668329 -16.085666 0.000000 -0.000000 0.000000 0.676482 -3.432783 0.958280 0.890477 -3.386920 14.382904 -0.198349 -10.259983 -18.711477 0.000000 -0.000000 0.000000 1.092317 -0.942509 3.753692 0.821099 -2.345377 4.026016 -0.435391 -1.561431 3.341310 3.681676 0.782751 0.372792 1.270504 -2.058430 11.261007 -28.929731 0.144494 5.835386 -59.537865 -7.672000 7.726937 10.665895 -24.393207 2.124795 -1.980701 -2.882107 -8.846418 25.834818 3.517752 5.947490 57.374489 4.338623 13.124695 -11.961915 25.934638 -2.576897 6.289392 2.332045 -9.513414 
-0.292554 -1.899853 1.027149 -175.859494 1.883621 83.896557 2.109244 3.576541 8.547447 -3.887006 -3.373982 2.504389 5.066399 11.721755 -15.992658 0.000000 -0.000000 0.000000 0.680335 -3.372063 0.886108 0.877601 -3.358092 14.449242 -0.209157 -10.248236 -18.714380 0.000000 -0.000000 0.000000 1.031088 -0.934053 3.819130 0.819611 -2.322235 3.984044 -0.434077 -1.546833 3.327443 3.707723 0.814672 0.379968 1.269243 -2.027940 11.272594 -28.903406 0.123598 5.837194 -59.503742 -7.712450 7.738750 10.657337 -24.553503 2.114645 -1.942501 -2.862195 -8.885858 25.824712 3.531924 5.954618 57.387792 4.359434 13.155027 -11.980146 26.029882 -2.584215 6.283611 2.330527 -9.531161 
-0.292713 -1.900284 1.027066 -175.940357 1.892872 83.878796 2.108105 3.602811 8.543685 -3.895828 -3.369694 2.539345 5.070364 11.746894 -15.921074 0.000000 -0.000000 0.000000 0.695146 -3.334941 0.818924 0.858388 -3.321330 14.525144 -0.234914 -10.254774 -18.739471 0.000000 -0.000000 0.000000 0.961539 -0.935701 3.837805 0.823205 -2.326463 4.013890 -0.431803 -1.533911 3.332974 3.706912 0.863349 0.403985 1.299632 -1.990964 11.225762 -28.904572 0.045720 5.852296 -59.435964 -7.769287 7.758276 10.631712 -24.727587 2.133827 -1.867647 -2.769577 -8.810485 25.838714 3.596238 5.960318 57.391402 4.384354 13.159226 -12.014314 26.120826 -2.625604 6.280592 2.322424 -9.536418 
-0.292861 -1.900686 1.027031 -176.053330 1.875859 83.842553 2.078125 3.640131 8.568338 -3.901092 -3.367181 2.561812 5.091801 11.788968 -15.845645 0.000000 -0.000000 0.000000 0.691891 -3.259173 0.754492 0.826145 -3.286092 14.633949 -0.253658 -10.260067 -18.778326 0.000000 -0.000000 0.000000 0.881130 -0.917365 3.861771 0.816249 -2.309885 4.050839 -0.429383 -1.525587 3.331103 3.684011 0.870193 0.457490 1.312146 -1.975621 11.179838 -28.895115 -0.029635 5.854078 -59.377006 -7.835231 7.767590 10.622538 -24.863998 2.106995 -1.815905 -2.698268 -8.805616 25.835313 3.644086 5.961575 57.433571 4.403641 13.167980 -12.036518 26.204840 -2.651680 6.294066 2.300689 -9.573051 
-0.293082 -1.901283 1.026912 -176.089329 1.881912 83.829011 2.054268 3.628282 8.511666 -3.894389 -3.360688 2.643590 5.120373 11.826133 -15.783541 0.000000 -0.000000 0.000000 0.710935 -3.179333 0.631109 0.794443 -3.282298 14.793406 -0.280697 -10.296491 -18.832491 0.000000 -0.000000 0.000000 0.852453 -0.930484 3.952357 0.808740 -2.318332 3.998866 -0.443506 -1.532988 3.327085 3.647238 0.877559 0.452628 1.291365 -1.962005 11.208855 -28.873186 -0.102517 5.854258 -59.345205 -7.910384 7.775573 10.619316 -24.949100 2.051301 -1.765019 -2.685337 -8.858447 25.817070 3.680838 5.970183 57.485557 4.404297 13.204957 -12.064701 26.315339 -2.653915 6.290989 2.316140 -9.607992 
-0.293337 -1.902016 1.026843 -176.179231 1.856180 83.790641 1.989639 3.661563 8.494959 -3.880440 -3.348860 2.697401 5.166849 11.885202 -15.684121 0.000000 -0.000000 0.000000 0.702577 -3.083667 0.496682 0.734446 -3.259821 14.998695 -0.281525 -10.313171 -18.877125 0.000000 -0.000000 0.000000 0.788769 -0.945106 4.075596 0.798136 -2.302850 3.952982 -0.447295 -1.537176 3.327948 3.590832 0.918010 0.451996 1.266437 -1.910212 11.216072 -28.882324 -0.170033 5.857764 -59.289256 -7.996512 7.772743 10.627140 -25.087473 1.976048 -1.702580 -2.672101 -8.923764 25.809169 3.717790 5.976429 57.518815 4.409722 13.256326 -12.070327 26.439768 -2.648556 6.277680 2.333306 -9.603298 
-0.293577 -1.902675 1.026793 -176.292520 1.829248 83.768591 1.933534 3.565090 8.427531 -3.916421 -3.230399 2.821509 5.214075 11.971042 -15.575997 0.000000 -0.000000 0.000000 0.688310 -2.965121 0.354146 0.693283 -3.222489 15.187232 -0.294986 -10.335190 -18.886307 0.000000 -0.000000 0.000000 0.753645 -0.925046 4.209701 0.776732 -2.282297 3.872425 -0.448281 -1.548102 3.288462 3.498212 1.067112 0.488535 1.266088 -1.631177 11.068195 -28.869225 -0.217409 5.914979 -59.280782 -8.030910 7.763366 10.651972 -25.217457 1.963566 -1.676484 -2.641363 -9.011139 25.771819 3.770588 6.050102 57.577255 4.407872 13.296130 -12.103393 26.477821 -2.637614 6.287275 2.305471 -9.641357 
-0.293867 -1.903319 1.026818 -176.429674 1.811732 83.745554 1.870360 3.253139 8.334958 -3.980618 -2.921676 2.963138 5.185033 12.139654 -15.558246 0.000000 -0.000000 0.000000 0.687349 -2.825417 0.228330 0.655040 -3.175757 15.363094 -0.286262 -10.359423 -18.900954 0.000000 -0.000000 0.000000 0.746913 -0.861055 4.294213 0.755907 -2.262920 3.832639 -0.465150 -1.559439 3.313394 3.472895 1.073720 0.505481 1.269628 -1.610498 11.065260 -28.830781 -0.247055 5.905152 -59.297060 -8.075121 7.821785 10.669028 -25.293944 1.928258 -1.698116 -2.684752 -9.099332 25.757104 3.787264 6.053046 57.600635 4.422399 13.377202 -12.110548 26.479964 -2.600265 6.284298 2.300008 -9.662262 
-0.294326 -1.904156 1.026858 -176.440256 1.810550 83.752982 1.813352 3.137124 8.210895 -3.972115 -2.823062 3.045370 5.203464 12.177334 -15.574395 0.000000 -0.000000 0.000000 0.662554 -2.753248 0.119814 0.652656 -3.143645 15.460060 -0.237962 -10.378713 -18.892479 0.000000 -0.000000 0.000000 0.740134 -0.865374 4.343651 0.752631 -2.277372 3.806803 -0.473786 -1.590471 3.361876 3.493283 1.057764 0.442791 1.276450 -1.677110 11.153524 -28.783107 -0.309679 5.878581 -59.351215 -8.155661 7.887416 10.673318 -25.286549 1.904511 -1.683503 -2.749187 -9.168707 25.701774 3.819314 6.006985 57.623575 4.431705 13.446091 -12.061081 26.458987 -2.556622 6.274857 2.297372 -9.680497 
